<svg width="40" height="40" viewBox="0 0 40 40" fill="none" xmlns="http://www.w3.org/2000/svg">
<path fill-rule="evenodd" clip-rule="evenodd" d="M20 20C24.6024 20 28.3334 16.269 28.3334 11.6667C28.3334 7.06429 24.6024 3.33333 20 3.33333C15.3976 3.33333 11.6667 7.06429 11.6667 11.6667C11.6667 13.6954 12.3916 15.5548 13.5966 17H18C18.9205 17 19.6667 17.7462 19.6667 18.6667C19.6667 19.1819 19.4329 19.6425 19.0656 19.9482C19.3724 19.9824 19.6841 20 20 20ZM12.1896 20.3333C14.2575 22.1981 16.9962 23.3333 20 23.3333C26.4433 23.3333 31.6667 18.11 31.6667 11.6667C31.6667 5.22334 26.4433 0 20 0C13.5567 0 8.33335 5.22334 8.33335 11.6667C8.33335 13.5884 8.79797 15.4015 9.62101 17H3C3 18.8409 4.49238 20.3333 6.33333 20.3333H12.1896ZM34.8736 40C33.3324 33.32 27.2583 28.3333 20 28.3333C12.7417 28.3333 6.66764 33.32 5.12647 40H1.66669C3.26049 31.4663 10.8625 25 20 25C29.1376 25 36.7396 31.4663 38.3334 40H34.8736ZM35 6.66667C34.0795 6.66667 33.3333 7.41286 33.3333 8.33333V15C33.3333 15.9205 34.0795 16.6667 35 16.6667C35.9205 16.6667 36.6667 15.9205 36.6667 15V8.33333C36.6667 7.41286 35.9205 6.66667 35 6.66667ZM5.00002 6.66667C5.92049 6.66667 6.66669 7.41286 6.66669 8.33333L6.66669 15C6.66669 15.9205 5.9205 16.6667 5.00002 16.6667C4.07955 16.6667 3.33335 15.9205 3.33335 15L3.33335 8.33333C3.33335 7.41286 4.07955 6.66667 5.00002 6.66667Z" fill="#F64C32"/>
</svg>
