<svg width="40" height="40" viewBox="0 0 40 40" fill="none" xmlns="http://www.w3.org/2000/svg">
<path fill-rule="evenodd" clip-rule="evenodd" d="M28.3345 12.1127C27.3025 11.5174 26.6667 10.4166 26.6667 9.22521V3.33333H22.7151C22.3678 7.28938 19.0462 10.3922 15 10.3922C10.9538 10.3922 7.63223 7.28938 7.28489 3.33333H3.33333V26.6667H9.22521C10.4166 26.6667 11.5174 27.3025 12.1127 28.3345C12.7079 29.3666 12.7071 30.6378 12.1106 31.6691C11.8289 32.156 11.6667 32.7206 11.6667 33.3333C11.6667 35.1743 13.1591 36.6667 15 36.6667C16.8409 36.6667 18.3333 35.1743 18.3333 33.3333C18.3333 32.7206 18.1711 32.156 17.8894 31.6691C17.2929 30.6378 17.2921 29.3666 17.8873 28.3345C18.4826 27.3025 19.5834 26.6667 20.7748 26.6667H26.6667V20.7748C26.6667 19.5834 27.3025 18.4826 28.3345 17.8873C29.3666 17.2921 30.6378 17.2929 31.6691 17.8894C32.156 18.1711 32.7206 18.3333 33.3333 18.3333C35.1743 18.3333 36.6667 16.8409 36.6667 15C36.6667 13.1591 35.1743 11.6667 33.3333 11.6667C32.7206 11.6667 32.156 11.8289 31.6691 12.1106C30.6378 12.7071 29.3666 12.7079 28.3345 12.1127ZM22.7465 2.69833C22.7466 2.69834 22.7463 2.69909 22.7455 2.7006L22.7465 2.69833ZM30 1.76471C30 0.790086 29.2099 0 28.2353 0H21.3689C20.1997 0 19.4118 1.47783 19.4118 2.64706C19.4118 5.08361 17.4366 7.05882 15 7.05882C12.5634 7.05882 10.5882 5.08361 10.5882 2.64706C10.5882 1.47783 9.80029 0 8.63106 0H1.76471C0.790086 0 0 0.790086 0 1.76471V28.2353C0 29.2099 0.790086 30 1.76471 30H9.22521C8.65798 30.9806 8.33333 32.119 8.33333 33.3333C8.33333 37.0152 11.3181 40 15 40C18.6819 40 21.6667 37.0152 21.6667 33.3333C21.6667 32.119 21.342 30.9806 20.7748 30H28.2353C29.2099 30 30 29.2099 30 28.2353V20.7748C30.9806 21.342 32.119 21.6667 33.3333 21.6667C37.0152 21.6667 40 18.6819 40 15C40 11.3181 37.0152 8.33333 33.3333 8.33333C32.119 8.33333 30.9806 8.65798 30 9.22521V1.76471Z" fill="#F64C32"/>
</svg>
