<svg width="40" height="40" viewBox="0 0 40 40" fill="none" xmlns="http://www.w3.org/2000/svg">
<path fill-rule="evenodd" clip-rule="evenodd" d="M13.0992 8.03371V30.1116C13.0992 30.7681 12.9699 31.3944 12.7355 31.9663H27.295C30.7972 31.9663 33.6363 29.124 33.6363 25.618V8.03371H13.0992ZM8.21493 34.9993L27.295 35C32.4708 35 36.6666 30.7995 36.6666 25.618V5H11.582V5.00229H10.0689V8.37044H3.33331L3.33454 30.1119C3.33469 32.8105 5.51949 34.9983 8.21493 34.9993ZM10.0689 11.4042H6.36385L6.3649 30.1117C6.36496 31.1356 7.1941 31.9656 8.21688 31.9656C9.2397 31.9656 10.0689 31.1355 10.0689 30.1116V11.4042ZM16.8024 11.7409H29.934V21.5162H16.8024V11.7409ZM19.8328 14.7746V18.4825H26.9036V14.7746H19.8328ZM30.1006 28.2575H16.6323V25.2238H30.1006V28.2575Z" fill="#F64C32"/>
</svg>
