<svg width="40" height="40" viewBox="0 0 40 40" fill="none" xmlns="http://www.w3.org/2000/svg">
<path fill-rule="evenodd" clip-rule="evenodd" d="M25.5677 3.33325C26.2344 3.33325 26.837 3.73056 27.0996 4.34335L30.2383 11.6666H38.3333C39.2538 11.6666 40 12.4128 40 13.3333V34.9999C40 35.9204 39.2538 36.6666 38.3333 36.6666H1.66667C0.746192 36.6666 0 35.9204 0 34.9999V13.3333C0 12.4128 0.746192 11.6666 1.66667 11.6666H9.76167L12.9004 4.34335C13.163 3.73056 13.7656 3.33325 14.4323 3.33325H25.5677ZM24.4683 6.66659H15.53L11.9596 14.9999H3.33333V33.3333H36.6667V14.9999H28.0404L24.4683 6.66659ZM20 14.9999C24.6024 14.9999 28.3333 18.7309 28.3333 23.3333C28.3333 27.9356 24.6024 31.6666 20 31.6666C15.3976 31.6666 11.6667 27.9356 11.6667 23.3333C11.6667 18.7309 15.3976 14.9999 20 14.9999ZM20 18.3333C17.2386 18.3333 15 20.5718 15 23.3333C15 26.0947 17.2386 28.3333 20 28.3333C22.7614 28.3333 25 26.0947 25 23.3333C25 20.5718 22.7614 18.3333 20 18.3333Z" fill="#F64C32"/>
</svg>
