<svg id="Camada_1" data-name="Camada 1" xmlns="http://www.w3.org/2000/svg" viewBox="0 0 375.85 180.95"><defs><style>.cls-1{fill:#615d61;}.cls-2{fill:#5c0a98;}.cls-3{fill:#f64c32;}.cls-4{fill:#fbc757;}</style></defs><title>tselogo</title><path class="cls-1" d="M248.43,83.45H237.2V34.38H221.77v-9h42.09v9H248.43Z" transform="translate(-4.58 -4.52)"/><path class="cls-1" d="M269.2,69.46l10.16-2.17q1.83,8.64,14,8.63c3.72,0,6.57-.74,8.57-2.21a6.59,6.59,0,0,0,3-5.48,7.73,7.73,0,0,0-1.36-4.41c-.91-1.34-2.85-2.4-5.83-3.16l-11.1-2.9a27.07,27.07,0,0,1-8.41-3.38,13.2,13.2,0,0,1-4.36-5.33,17,17,0,0,1-1.64-7.36A15.28,15.28,0,0,1,278,29.21q5.79-4.7,14.8-4.7a27,27,0,0,1,13.37,3.28,14.74,14.74,0,0,1,7.51,9.27l-10,2.46q-2.29-6.59-10.72-6.59c-3.26,0-5.74.68-7.46,2A6.33,6.33,0,0,0,283,40.16q0,5,8.08,7L301,49.6q9,2.25,12,6.65A16.68,16.68,0,0,1,316.06,66a16,16,0,0,1-6.44,13.46q-6.45,4.91-16.69,4.91a30.53,30.53,0,0,1-15.12-3.61A17.76,17.76,0,0,1,269.2,69.46Z" transform="translate(-4.58 -4.52)"/><path class="cls-1" d="M367.1,83.45H329.39v-58h37.33V34H339.85V49.77h21.6v8.42h-21.6V74.43H367.1Z" transform="translate(-4.58 -4.52)"/><path class="cls-1" d="M208.45,157.12V99.07h22.62a32.43,32.43,0,0,1,9.53,1.19,13,13,0,0,1,6.54,5,14.6,14.6,0,0,1,2.77,8.89,13.06,13.06,0,0,1-2.81,8.35,12.58,12.58,0,0,1-7.74,4.53q6.13,1.06,9.27,5a14.3,14.3,0,0,1,3.15,9.27,15.67,15.67,0,0,1-4.4,11.29q-4.41,4.56-13.55,4.57Zm9.91-33.68h12.75a7.93,7.93,0,0,0,8.47-8.29q0-4-2.6-5.89a10,10,0,0,0-6.08-1.9H218.36Zm0,25h13.52a9.74,9.74,0,0,0,6.78-2.25,8.52,8.52,0,0,0,0-12.08,9.48,9.48,0,0,0-6.7-2.34H218.36Z" transform="translate(-4.58 -4.52)"/><path class="cls-1" d="M274.8,157.12h-9.69V99.07h9.69Z" transform="translate(-4.58 -4.52)"/><path class="cls-1" d="M307.61,158q-9.54,0-14.55-6.85a25.87,25.87,0,0,1-5-15.69q0-9.52,5.55-15.86t14.65-6.33a18.2,18.2,0,0,1,14.18,6.16q5.55,6.16,5.55,16,0,10.17-5.76,16.35A19.07,19.07,0,0,1,307.61,158Zm.34-8q9.78,0,9.78-14.59,0-6.59-2.34-10.4a7.87,7.87,0,0,0-7.19-3.8,8.13,8.13,0,0,0-7.44,3.93q-2.43,3.93-2.42,10.44,0,7,2.57,10.72A8.13,8.13,0,0,0,308,150Z" transform="translate(-4.58 -4.52)"/><path class="cls-1" d="M380.38,106v7.44h-3a11.35,11.35,0,0,0-3.42.47c-1,.31-1.93,1.32-2.87,3q5.1,4.17,5.1,9.27a11.5,11.5,0,0,1-4.78,9.44q-4.79,3.74-12.65,3.74a34.59,34.59,0,0,1-7.95-1.1,4.43,4.43,0,0,0-3,4.21,3.86,3.86,0,0,0,1.45,2.89,6.3,6.3,0,0,0,4.38,1.32h12.75q6.56,0,10.27,3.38a10.88,10.88,0,0,1,3.72,8.4q0,6.08-5.63,10.07t-16.69,4q-20.81,0-20.8-11.61,0-5.75,6.25-8.72-4-3.39-4-7.1,0-5.61,6.84-8.93-6-3.61-5.95-10a11.67,11.67,0,0,1,4.38-9.14q4.38-3.78,13.31-3.78a39.51,39.51,0,0,1,8.29.89q2-8.2,10.34-8.21Zm-32.66,48.82a5.26,5.26,0,0,0-2.08,3.7c0,2,1.16,3.68,3.49,5.16s6,2.24,11.09,2.24q11.19,0,11.19-5.74a3.47,3.47,0,0,0-2-3.21,9,9,0,0,0-4.46-1.09H354.7A27.94,27.94,0,0,1,347.72,154.78Zm10.63-21.18q7.92,0,7.91-7.44a6.51,6.51,0,0,0-2-4.81,7.84,7.84,0,0,0-5.76-1.95,8.16,8.16,0,0,0-5.93,2,6.82,6.82,0,0,0-2.1,5.1,6.69,6.69,0,0,0,2.08,5.11A8.14,8.14,0,0,0,358.35,133.6Z" transform="translate(-4.58 -4.52)"/><ellipse id="circle48-9-9" class="cls-2" cx="70" cy="72" rx="70" ry="72"/><polyline id="polyline180-6-5" class="cls-3" points="178.58 180.95 66.4 180.95 178.58 116.77 178.58 180.95"/><path class="cls-4" d="M122.75,11.55a80.46,80.46,0,0,1,27.36,42.57c11.36,43.61-13.94,88.78-56.28,100.2A75,75,0,0,1,51,153.8v31.68H61.82l121.34-70.61V11.55Z" transform="translate(-4.58 -4.52)"/></svg>