<svg width="32" height="32" viewBox="0 0 32 32" fill="none" xmlns="http://www.w3.org/2000/svg">
<path d="M26.6032 10.5603C26.6195 10.7954 26.6195 11.0305 26.6195 11.2677C26.6195 18.4969 21.1161 26.8344 11.0528 26.8344V26.8301C8.08013 26.8344 5.16917 25.9829 2.66663 24.3773C3.09888 24.4293 3.53331 24.4553 3.96881 24.4564C6.43235 24.4586 8.82547 23.632 10.7636 22.1099C8.42247 22.0655 6.36952 20.539 5.65234 18.3106C6.47244 18.4688 7.31745 18.4363 8.12238 18.2163C5.57 17.7007 3.73373 15.4581 3.73373 12.8538C3.73373 12.8299 3.73373 12.8072 3.73373 12.7844C4.49424 13.208 5.34575 13.4431 6.21676 13.4691C3.81281 11.8625 3.0718 8.66444 4.52349 6.16407C7.3012 9.58204 11.3995 11.6599 15.799 11.8798C15.3581 9.97962 15.9604 7.98843 17.3818 6.65266C19.5853 4.58129 23.0509 4.68746 25.1223 6.88991C26.3476 6.64832 27.5219 6.19873 28.5966 5.56172C28.1882 6.82816 27.3334 7.90393 26.1916 8.58752C27.276 8.45968 28.3355 8.16935 29.3333 7.72626C28.5988 8.82694 27.6736 9.78571 26.6032 10.5603Z" fill="#5C0A98"/>
</svg>
