<svg width="32" height="32" viewBox="0 0 32 32" fill="none" xmlns="http://www.w3.org/2000/svg">
<path d="M16.0503 4.38721C9.46348 4.38721 4.10297 9.5503 4.10065 15.8956C4.0991 17.9248 4.65032 19.9051 5.69548 21.6494L4 27.613L10.3352 26.0128C12.0975 26.9346 14.0569 27.4154 16.0457 27.414H16.0503C22.6372 27.414 27.9977 22.2502 28 15.9049C28.0015 12.8313 26.7597 9.93818 24.503 7.76347C22.247 5.58798 19.247 4.38798 16.0503 4.38721ZM16.0503 25.47H16.0465C14.2643 25.47 12.5161 25.0086 10.991 24.1369L10.6271 23.9294L6.86916 24.8786L7.87252 21.3482L7.63639 20.9867C6.64457 19.474 6.11659 17.7044 6.11742 15.8956C6.11974 10.621 10.576 6.33121 16.0542 6.33121C18.7066 6.33198 21.2003 7.32837 23.0761 9.13611C24.952 10.9439 25.984 13.3477 25.9825 15.9041C25.9801 21.1787 21.5246 25.47 16.0495 25.47H16.0503ZM21.4983 18.3049C21.1995 18.1617 19.7316 17.4657 19.4575 17.3689C19.1843 17.2737 18.9853 17.2241 18.7863 17.5121C18.5881 17.8001 18.0152 18.4481 17.8418 18.6393C17.6668 18.8313 17.4926 18.8546 17.1938 18.7113C16.895 18.5673 15.9326 18.2639 14.793 17.2837C13.905 16.5219 13.3058 15.5805 13.1316 15.2917C12.9574 15.0045 13.113 14.8489 13.2625 14.7057C13.3964 14.5779 13.5613 14.3704 13.7099 14.2024C13.8586 14.0344 13.9081 13.9144 14.0088 13.7224C14.1079 13.5312 14.0583 13.3624 13.9832 13.2192C13.9081 13.0744 13.312 11.6592 13.0619 11.084C12.8204 10.5235 12.5742 10.5986 12.3907 10.5893C12.2165 10.5815 12.0183 10.5792 11.8178 10.5792C11.6204 10.5792 11.296 10.6512 11.0219 10.9392C10.7486 11.2272 9.97677 11.9224 9.97677 13.3377C9.97677 14.7537 11.0467 16.1209 11.1961 16.3129C11.3455 16.5041 13.3019 19.4097 16.2973 20.6561C17.0095 20.9511 17.5654 21.1284 17.9997 21.2615C18.7151 21.4806 19.3662 21.4489 19.8803 21.3753C20.4532 21.2925 21.647 20.6801 21.8947 20.0089C22.144 19.3377 22.144 18.7617 22.0697 18.6417C21.9969 18.5217 21.7972 18.4497 21.4983 18.3049V18.3049Z" fill="#5C0A98"/>
</svg>
